<?xml version="1.0" encoding="UTF-8"?>
<svg id="Layer_2" data-name="Layer 2" xmlns="http://www.w3.org/2000/svg" viewBox="0 0 47.96 48">
  <defs>
    <style>
      .cls-1 {
        fill: #5098b6;
      }

      .cls-1, .cls-2, .cls-3, .cls-4, .cls-5, .cls-6, .cls-7, .cls-8, .cls-9 {
        stroke-width: 0px;
      }

      .cls-2 {
        fill: #7ebdc8;
      }

      .cls-3 {
        fill: #03293a;
      }

      .cls-4 {
        fill: #5d9b71;
      }

      .cls-5 {
        fill: #002735;
      }

      .cls-6 {
        fill: #c4e4c7;
      }

      .cls-7 {
        fill: #fff;
      }

      .cls-8 {
        fill: #286857;
      }

      .cls-9 {
        fill: #022836;
      }
    </style>
  </defs>
  <g id="Layer_1-2" data-name="Layer 1">
    <g>
      <circle class="cls-7" cx="23.98" cy="23.9" r="22.55"/>
      <g>
        <path class="cls-1" d="M11.13,41.81c-.81,0-1.66-.03-2.56-.09l.11-1.57c8.03.55,11.65-1.53,15.84-3.93,2.59-1.48,5.52-3.17,9.78-4.3l.4,1.52c-4.06,1.08-6.77,2.64-9.4,4.14-3.78,2.17-7.37,4.23-14.16,4.23Z"/>
        <path class="cls-6" d="M1.15,25.01s7.89-.52,14.58,5.55l-11.77,4.47-2.81-10.02Z"/>
        <path class="cls-4" d="M14.05,30.87s-3.63-2.78-12.82-4.75l2.47,8.42,10.35-3.67Z"/>
        <path class="cls-8" d="M11.39,31.52s-4.92-3.02-9.95-3.78l2.02,6.33,7.93-2.54Z"/>
        <path class="cls-6" d="M4.15,35.36s5.42-5.03,19.23-4.13l-16.7,7.71-2.53-3.58Z"/>
        <path class="cls-4" d="M4.29,35.58s9.12-3.91,18.6-3.79l-16.21,7.15-2.39-3.36Z"/>
        <path class="cls-8" d="M4.78,36.4s11.85-4.01,14.87-2.8l-13.38,4.85-1.49-2.05Z"/>
        <path class="cls-6" d="M35.78,33.22s3.93-4.79,10.74-5.48l-4.25,9.96-6.5-4.48Z"/>
        <path class="cls-4" d="M36.02,33.32s6.38-4.06,10.14-3.82l-3.88,8.19-6.26-4.37Z"/>
        <path class="cls-8" d="M37.54,34.04s1.94-2.32,8.17-2.95l-3.29,6.42-4.88-3.47Z"/>
        <path class="cls-6" d="M20.47,46.6s8.58-8.88,19.25-6.03c0,0-5.97,6.77-19.25,6.03Z"/>
        <path class="cls-2" d="M11.02,43.31v-.96c7.86-.05,11.13-2,14.58-4.06,3.03-1.81,6.16-3.68,12.45-4.43l.11.95c-6.09.73-9.13,2.55-12.07,4.3-3.57,2.13-6.94,4.14-15.07,4.2Z"/>
        <path class="cls-4" d="M23.08,46.85s6.62-6.24,15.53-5.28c0,0-4.97,6.73-15.53,5.28Z"/>
        <path class="cls-8" d="M37.35,42.54c-7.49.29-12,4.28-12,4.28l12-4.28Z"/>
        <path class="cls-1" d="M14.45,44.79s9.73-1.34,12.66-4.22l-8.06,5.76-4.61-1.55Z"/>
        <path class="cls-1" d="M42.42,37.51s-9.55-3.18-17.89,5.32c0,0,7.22-4.58,15.78-2.84l2.1-2.48Z"/>
        <path class="cls-1" d="M7.72,38.31c7.93,1.69,12.78-1.65,22.18-7.12l-4.85-.87c-6.92,5.12-17.33,7.99-17.33,7.99Z"/>
        <circle class="cls-5" cx="9.92" cy="11.51" r=".54"/>
        <circle class="cls-5" cx="11.85" cy="8.47" r=".54"/>
        <circle class="cls-5" cx="27.21" cy="9.79" r=".54"/>
        <circle class="cls-5" cx="38.31" cy="11.38" r=".54"/>
        <circle class="cls-5" cx="39.56" cy="14.08" r=".54"/>
        <circle class="cls-5" cx="18.82" cy="14.63" r=".54"/>
        <circle class="cls-5" cx="29.31" cy="16.39" r=".72"/>
        <circle class="cls-5" cx="23.91" cy="7.83" r=".72"/>
        <circle class="cls-5" cx="19.68" cy="5.81" r=".62"/>
        <circle class="cls-5" cx="23.91" cy="3.09" r=".62"/>
        <circle class="cls-5" cx="28.14" cy="5.81" r=".62"/>
        <circle class="cls-5" cx="15.88" cy="10.97" r=".72"/>
        <circle class="cls-5" cx="19.11" cy="9.46" r=".54"/>
        <circle class="cls-5" cx="32.91" cy="10.16" r="2.87"/>
        <path class="cls-5" d="M7.51,16.63v8.76l3.5,1.35v-12.89l-3.5,2.78ZM9.38,24.72c-.34,0-.61-.27-.61-.61s.27-.61.61-.61.61.27.61.61-.27.61-.61.61ZM9.38,21.71c-.34,0-.61-.27-.61-.61s.27-.61.61-.61.61.27.61.61-.27.61-.61.61ZM9.38,18.62c-.34,0-.61-.27-.61-.61s.27-.61.61-.61.61.27.61.61-.27.61-.61.61Z"/>
        <path class="cls-5" d="M12.56,16.95v10.59l3.5,2.43v-15.78l-3.5,2.76ZM14.34,26.23c-.34,0-.61-.27-.61-.61s.27-.61.61-.61.61.27.61.61-.27.61-.61.61ZM14.36,23.4c-.34,0-.61-.27-.61-.61s.27-.61.61-.61.61.27.61.61-.27.61-.61.61ZM14.36,20.68c-.34,0-.61-.27-.61-.61s.27-.61.61-.61.61.27.61.61-.27.61-.61.61ZM14.36,18.08c-.34,0-.61-.27-.61-.61s.27-.61.61-.61.61.27.61.61-.27.61-.61.61Z"/>
        <path class="cls-3" d="M21.7,10.33v19.8l4.97.41V13.95l-4.97-3.62ZM23.66,13.95c.34,0,.61.27.61.61s-.27.61-.61.61-.61-.27-.61-.61.27-.61.61-.61ZM23.05,23.57c0-.34.27-.61.61-.61s.61.27.61.61-.27.61-.61.61-.61-.27-.61-.61ZM23.85,27.94c-.34,0-.61-.27-.61-.61s.27-.61.61-.61.61.27.61.61-.27.61-.61.61ZM25.07,20.68c-.34,0-.61-.27-.61-.61s.27-.61.61-.61.61.27.61.61-.27.61-.61.61Z"/>
        <path class="cls-5" d="M32.37,16.39v15.52l3.41,1.31v-14.14l-3.41-2.69ZM34.06,28.68c-.24,0-.44-.2-.44-.44s.2-.44.44-.44.44.2.44.44-.2.44-.44.44ZM34.06,26.37c-.24,0-.44-.2-.44-.44s.2-.44.44-.44.44.2.44.44-.2.44-.44.44ZM34.06,24.12c-.24,0-.44-.2-.44-.44s.2-.44.44-.44.44.2.44.44-.2.44-.44.44ZM34.06,21.87c-.24,0-.44-.2-.44-.44s.2-.44.44-.44.44.2.44.44-.2.44-.44.44ZM34.06,19.72c-.24,0-.44-.2-.44-.44s.2-.44.44-.44.44.2.44.44-.2.44-.44.44Z"/>
        <path class="cls-5" d="M37.26,15.48v15.61l3.43-2v-11.08l-3.43-2.52ZM38.95,18.67c.34,0,.61.27.61.61s-.27.61-.61.61-.61-.27-.61-.61.27-.61.61-.61ZM38.95,21.57c.34,0,.61.27.61.61s-.27.61-.61.61-.61-.27-.61-.61.27-.61.61-.61ZM38.95,28.96c-.34,0-.61-.27-.61-.61s.27-.61.61-.61.61.27.61.61-.27.61-.61.61ZM39.02,25.82c-.34,0-.61-.27-.61-.61s.27-.61.61-.61.61.27.61.61-.27.61-.61.61Z"/>
        <polygon class="cls-2" points="17.56 17.47 20.16 19.8 20.16 30.15 17.56 30.33 17.56 17.47"/>
        <polygon class="cls-2" points="28.25 23.09 30.78 20.81 30.78 31.42 28.25 30.82 28.25 23.09"/>
        <path class="cls-9" d="M23.98,48c-6.41,0-12.43-2.5-16.96-7.03S0,30.41,0,24,2.49,11.56,7.02,7.03,17.57,0,23.98,0s12.43,2.5,16.96,7.03c4.53,4.53,7.02,10.56,7.02,16.97s-2.49,12.44-7.02,16.97c-4.53,4.53-10.55,7.03-16.96,7.03ZM23.98,2.27c-5.8,0-11.25,2.26-15.35,6.37-4.1,4.1-6.36,9.56-6.36,15.37s2.26,11.26,6.36,15.37,9.55,6.37,15.35,6.37,11.25-2.26,15.35-6.37c4.1-4.1,6.36-9.56,6.36-15.37s-2.26-11.26-6.36-15.37c-4.1-4.1-9.55-6.37-15.35-6.37Z"/>
        <path class="cls-9" d="M42.06,38.04c-4.53-3.12-9.32-5.2-14.24-6.15-3.94-.77-7.97-.83-11.99-.19-6.88,1.1-11.4,3.92-11.44,3.95l-1.22-1.91c.2-.12,4.88-3.07,12.2-4.26,4.29-.7,8.6-.64,12.81.17,5.25,1.01,10.35,3.21,15.16,6.53l-1.29,1.87Z"/>
        <path class="cls-9" d="M16.13,30.96c-3.37-3.06-7.26-4.52-9.93-5.21-2.91-.75-5.05-.78-5.07-.78v-1.4c.1,0,2.31.02,5.38.81,2.83.73,6.97,2.28,10.56,5.54l-.94,1.03Z"/>
        <path class="cls-9" d="M35.39,33.37l-.93-1.04c.22-.19,5.4-4.76,12.04-5.96l.25,1.37c-6.24,1.13-11.31,5.58-11.36,5.63Z"/>
        <path class="cls-9" d="M6.74,39.77l-.58-2.19c.12-.03,12.34-3.29,17.59-8.14l1.54,1.67c-5.66,5.23-18.03,8.53-18.55,8.66Z"/>
        <path class="cls-9" d="M20.81,47.04l-1.03-.94c.09-.1,2.35-2.54,5.97-4.55,4.84-2.69,9.79-3.3,14.33-1.77l-.45,1.32c-2.31-.78-4.72-.96-7.18-.54-1.98.34-4,1.08-5.99,2.18-3.43,1.9-5.63,4.27-5.66,4.3Z"/>
        <g>
          <path class="cls-5" d="M4.15,21.43v12.16l1.11-.23v-11.19s-.22-.63-1.11-.75Z"/>
          <path class="cls-5" d="M4.15,28.51l-1.04-.77s-1.04.99,1.04,2.46v-1.68Z"/>
          <path class="cls-5" d="M5.26,29.12l1.2-1.18s1.07.78-1.2,2.96v-1.78Z"/>
          <path class="cls-4" d="M5.26,22.18s.98.78,1.04,1.93v3.99l-1.03,1.03v-6.95Z"/>
        </g>
        <g>
          <path class="cls-5" d="M44.03,24.15v12.16s-1.11-.23-1.11-.23v-11.19s.22-.63,1.11-.75Z"/>
          <path class="cls-5" d="M44.03,31.23l1.04-.77s1.04.99-1.04,2.46v-1.68Z"/>
          <path class="cls-5" d="M42.92,31.84l-1.2-1.18s-1.07.78,1.2,2.96v-1.78Z"/>
          <path class="cls-4" d="M42.92,24.9s-.98.78-1.04,1.93v3.99s1.03,1.03,1.03,1.03v-6.95Z"/>
        </g>
      </g>
    </g>
  </g>
</svg>