<?xml version="1.0" encoding="UTF-8"?>
<svg id="Camada_1" data-name="Camada 1" xmlns="http://www.w3.org/2000/svg" viewBox="0 0 1080 1080">
  <defs>
    <style>
      .cls-1 {
        fill: #03020f;
      }

      .cls-2 {
        fill: #f9995d;
      }
    </style>
  </defs>
  <rect class="cls-2" x="-30.24" y="-30.24" width="1140.48" height="1140.48"/>
  <path class="cls-1" d="M860.7,761.97c-3.23-10.74-6.47-21.46-10.2-31.9-10.86-30.54-26.33-59.44-45.47-85.67,37.7-93.26,27.05-203.26-29.43-287.21-57.51-85.45-161.92-142.74-279.33-153.24-90.91-8.08-190.29,9.43-303.76,53.7l30.76,78.88c101-39.41,187.65-55.2,265.47-48.25,92.23,8.25,173.2,51.67,216.62,116.18,32.98,49,44.15,112.43,32.37,170.57-14.66-11.37-30.22-21.53-46.56-30.31-73.36-39.37-161.72-50.47-242.53-30.42-50.16,12.44-87.03,35.32-109.6,68.02-38.42,55.65-29.12,137.56,21.61,190.51,39.56,41.36,101.33,63.91,168.48,62.28,87.49-2.3,170.96-43.84,226.95-109.89,5.7,10.72,10.6,21.83,14.68,33.26,3.23,9.1,6.03,18.47,8.84,27.84,8.89,29.55,18.94,63.06,42.07,91.64l65.81-53.28c-12.66-15.62-19.51-38.49-26.79-62.71ZM526.94,750.49c-44,1.11-82.04-12.04-105.13-36.2-22.36-23.33-28.35-61.73-13.08-83.86,13.06-18.93,40.02-28.91,60.32-33.95,19.81-4.91,40.24-7.33,60.69-7.33,42.11,0,84.31,10.28,121.39,30.18,18.63,10,35.94,22.42,51.52,36.76-40,55.68-107.26,92.6-175.7,94.4Z"/>
</svg>